<svg width="17" height="17" viewBox="0 0 17 17" fill="none" xmlns="http://www.w3.org/2000/svg">
<g clip-path="url(#clip0_1853_6485)">
<path d="M8.75 16.244C8.75 16.244 14.9375 12.1984 14.9375 7.47842C14.9375 5.86895 14.2856 4.3254 13.1252 3.18734C11.9648 2.04927 10.391 1.40991 8.75 1.40991C7.10897 1.40991 5.53516 2.04927 4.37478 3.18734C3.2144 4.3254 2.5625 5.86895 2.5625 7.47842C2.5625 12.1984 8.75 16.244 8.75 16.244Z" stroke="#191919" stroke-width="1.25743" stroke-linecap="round" stroke-linejoin="round"/>
<path d="M8.74805 9.50124C9.88713 9.50124 10.8105 8.59558 10.8105 7.4784C10.8105 6.36122 9.88713 5.45557 8.74805 5.45557C7.60896 5.45557 6.68555 6.36122 6.68555 7.4784C6.68555 8.59558 7.60896 9.50124 8.74805 9.50124Z" stroke="#191919" stroke-width="1.25743" stroke-linecap="round" stroke-linejoin="round"/>
</g>
<defs>
<clipPath id="clip0_1853_6485">
<rect width="16.5" height="16.1827" fill="white" transform="translate(0.5 0.735596)"/>
</clipPath>
</defs>
</svg>
